<svg width="85" height="30" viewBox="0 0 85 30" fill="none" xmlns="http://www.w3.org/2000/svg">
<path d="M79.5938 20.5635L70.9204 0.420166H75.6768L84.3502 20.5635H79.5938ZM70.6406 20.5635L75.5369 10.4918H79.7337L74.8374 20.5635H70.6406ZM75.5369 10.4918L80.4332 0.420166H84.63L79.7337 10.4918H75.5369Z" fill="white"/>
<path d="M63.8895 15.1355V5.81918H68.534V15.1355H63.8895ZM55.4399 15.1355V5.81918H60.0844V15.1355H55.4399ZM68.534 5.87514H63.8895C63.8895 5.12909 63.7123 4.5509 63.3579 4.14057C63.0222 3.73025 62.5558 3.52508 61.959 3.52508V0C63.2087 0 64.3278 0.261117 65.3164 0.783352C66.305 1.28693 67.0884 1.98636 67.6666 2.88161C68.2448 3.75822 68.534 4.75606 68.534 5.87514ZM55.4399 5.87514C55.4399 4.75606 55.7291 3.75822 56.3073 2.88161C56.8855 1.98636 57.6689 1.28693 58.6575 0.783352C59.6461 0.261117 60.7652 0 62.0149 0V3.52508C61.418 3.52508 60.9424 3.73025 60.588 4.14057C60.2523 4.5509 60.0844 5.12909 60.0844 5.87514H55.4399ZM68.534 15.1075C68.534 16.2266 68.2448 17.2337 67.6666 18.129C67.0884 19.0056 66.305 19.705 65.3164 20.2273C64.3278 20.7308 63.2087 20.9826 61.959 20.9826V17.4576C62.5558 17.4576 63.0222 17.2524 63.3579 16.8421C63.7123 16.4317 63.8895 15.8535 63.8895 15.1075H68.534ZM55.4399 15.1075H60.0844C60.0844 15.8535 60.2523 16.4317 60.588 16.8421C60.9424 17.2524 61.418 17.4576 62.0149 17.4576V20.9826C60.7652 20.9826 59.6461 20.7308 58.6575 20.2273C57.6689 19.705 56.8855 19.0056 56.3073 18.129C55.7291 17.2337 55.4399 16.2266 55.4399 15.1075Z" fill="white"/>
<path d="M45.7972 11.3032V8.61739C46.394 8.61739 46.8603 8.41223 47.1961 8.0019C47.5505 7.59157 47.7277 7.01338 47.7277 6.26733H52.3721C52.3721 7.21855 52.083 8.0765 51.5048 8.84121C50.9266 9.60591 50.1432 10.2121 49.1546 10.6597C48.166 11.0887 47.0469 11.3032 45.7972 11.3032ZM44.4262 20.5635V17.0384H46.1049V20.5635H44.4262ZM44.4262 11.8627V8.61739H46.0769V11.8627H44.4262ZM48.0075 14.7163V14.1848H52.6519V14.7163H48.0075ZM48.0075 14.2128C48.0075 13.4667 47.8303 12.8885 47.4759 12.4782C47.1401 12.0679 46.6738 11.8627 46.0769 11.8627V9.17693C47.3267 9.17693 48.4458 9.40074 49.4344 9.84837C50.423 10.2774 51.2064 10.8742 51.7846 11.6389C52.3628 12.3849 52.6519 13.2429 52.6519 14.2128H48.0075ZM44.4262 3.94525V0.420166H45.8251V3.94525H44.4262ZM52.3721 6.29531H47.7277C47.7277 5.54926 47.5505 4.97107 47.1961 4.56074C46.8603 4.15042 46.394 3.94525 45.7972 3.94525V0.420166C47.0469 0.420166 48.166 0.681283 49.1546 1.20352C50.1432 1.7071 50.9266 2.40652 51.5048 3.30178C52.083 4.17839 52.3721 5.17623 52.3721 6.29531ZM52.6519 14.6884C52.6519 15.8074 52.3628 16.8146 51.7846 17.7099C51.2064 18.5865 50.423 19.2859 49.4344 19.8081C48.4458 20.3117 47.3267 20.5635 46.0769 20.5635V17.0384C46.6738 17.0384 47.1401 16.8333 47.4759 16.4229C47.8303 16.0126 48.0075 15.4344 48.0075 14.6884H52.6519ZM40.0615 20.5635V0.420166H44.706V20.5635H40.0615Z" fill="white"/>
<path d="M31.7942 20.5635V0.420166H36.4386V20.5635H31.7942Z" fill="white"/>
<path d="M23.649 15.1355V5.81918H28.2935V15.1355H23.649ZM15.1995 15.1355V5.81918H19.8439V15.1355H15.1995ZM28.2935 5.87514H23.649C23.649 5.12909 23.4718 4.5509 23.1174 4.14057C22.7817 3.73025 22.3154 3.52508 21.7185 3.52508V0C22.9682 0 24.0874 0.261117 25.0759 0.783352C26.0645 1.28693 26.8479 1.98636 27.4261 2.88161C28.0044 3.75822 28.2935 4.75606 28.2935 5.87514ZM15.1995 5.87514C15.1995 4.75606 15.4886 3.75822 16.0668 2.88161C16.645 1.98636 17.4284 1.28693 18.417 0.783352C19.4056 0.261117 20.5247 0 21.7744 0V3.52508C21.1776 3.52508 20.7019 3.73025 20.3475 4.14057C20.0118 4.5509 19.8439 5.12909 19.8439 5.87514H15.1995ZM28.2935 15.1075C28.2935 16.2266 28.0044 17.2337 27.4261 18.129C26.8479 19.0056 26.0645 19.705 25.0759 20.2273C24.0874 20.7308 22.9682 20.9826 21.7185 20.9826V17.4576C22.3154 17.4576 22.7817 17.2524 23.1174 16.8421C23.4718 16.4317 23.649 15.8535 23.649 15.1075H28.2935ZM15.1995 15.1075H19.8439C19.8439 15.8535 20.0118 16.4317 20.3475 16.8421C20.7019 17.2524 21.1776 17.4576 21.7744 17.4576V20.9826C20.5247 20.9826 19.4056 20.7308 18.417 20.2273C17.4284 19.705 16.645 19.0056 16.0668 18.129C15.4886 17.2337 15.1995 16.2266 15.1995 15.1075Z" fill="white"/>
<path d="M4.86467 3.94525V0.420166H6.2636V3.94525H4.86467ZM4.86467 13.6253V10.1002H6.2636V13.6253H4.86467ZM8.16615 7.77808V6.26733H12.8106V7.77808H8.16615ZM12.8106 6.29531H8.16615C8.16615 5.54926 7.98895 4.97107 7.63456 4.56074C7.29881 4.15042 6.8325 3.94525 6.23563 3.94525V0.420166C7.48534 0.420166 8.60449 0.681283 9.59306 1.20352C10.5816 1.7071 11.365 2.40652 11.9433 3.30178C12.5215 4.17839 12.8106 5.17623 12.8106 6.29531ZM12.8106 7.75011C12.8106 8.86918 12.5215 9.87635 11.9433 10.7716C11.365 11.6482 10.5816 12.3476 9.59306 12.8699C8.60449 13.3735 7.48534 13.6253 6.23563 13.6253V10.1002C6.8325 10.1002 7.29881 9.895 7.63456 9.48467C7.98895 9.07435 8.16615 8.49616 8.16615 7.75011H12.8106ZM0.5 20.5635V0.420166H5.14446V20.5635H0.5Z" fill="white"/>
<path d="M84.5 27.9826V28.9826H0.5V27.9826H84.5Z" fill="#40BAC2" stroke="#01D4EF" stroke-opacity="0.2"/>
</svg>
